<svg width="53" height="16" viewBox="0 0 53 16" fill="none" xmlns="http://www.w3.org/2000/svg">
<path d="M0.461426 15.2036V0.059021H1.51753L7.6007 9.0148L13.6733 0.059021H14.74V15.2036H13.6099V2.05506L7.62182 10.7679H7.53733L1.53865 2.05506V15.2036H0.461426Z" fill="#FC842D"/>
<path d="M19.9766 9.6907C19.9766 8.92327 20.1209 8.18751 20.4096 7.48344C20.6982 6.77937 21.089 6.16683 21.5819 5.64582C22.0747 5.11777 22.6767 4.69884 23.3878 4.38905C24.0989 4.07222 24.8558 3.91381 25.6584 3.91381C26.7216 3.91381 27.6861 4.17783 28.5521 4.70588C29.4252 5.2269 30.1011 5.93097 30.5799 6.8181C31.0657 7.69818 31.3086 8.65572 31.3086 9.6907C31.3086 10.7186 31.0657 11.6727 30.5799 12.5527C30.0941 13.4328 29.4111 14.1404 28.531 14.6755C27.658 15.2036 26.6864 15.4676 25.6162 15.4676C24.8206 15.4676 24.0707 15.3127 23.3667 15.0029C22.6626 14.6931 22.0641 14.2777 21.5713 13.7567C21.0784 13.2357 20.6877 12.6232 20.399 11.9191C20.1174 11.208 19.9766 10.4652 19.9766 9.6907ZM21.1172 9.6907C21.1172 11.0214 21.5537 12.1514 22.4267 13.0808C23.3068 14.0031 24.3841 14.4643 25.6584 14.4643C26.4611 14.4643 27.2074 14.2531 27.8974 13.8306C28.5874 13.4012 29.1365 12.8203 29.5449 12.0881C29.9532 11.3558 30.1574 10.5567 30.1574 9.6907C30.1574 8.36705 29.7139 7.24054 28.8267 6.31117C27.9396 5.37475 26.8694 4.90655 25.6162 4.90655C24.7995 4.90655 24.0461 5.12129 23.3561 5.55077C22.6661 5.97321 22.1205 6.55407 21.7191 7.29334C21.3178 8.02558 21.1172 8.8247 21.1172 9.6907Z" fill="#FC842D"/>
<path d="M36.2917 15.2036V4.17783H37.3584V6.14219C37.5626 5.81832 37.7667 5.53669 37.9709 5.2973C38.1751 5.05792 38.4215 4.8291 38.7102 4.61084C39.0059 4.38553 39.3474 4.21304 39.7346 4.09334C40.1289 3.97365 40.5619 3.91381 41.0336 3.91381C41.9348 3.91381 42.6952 4.13559 43.3148 4.57915C43.9414 5.01568 44.4202 5.58597 44.7511 6.29004C45.6734 4.70588 47.0006 3.91381 48.7326 3.91381C50.0352 3.91381 51.0666 4.33273 51.827 5.17057C52.5874 6.00842 52.9676 7.12437 52.9676 8.51843V15.2036H51.9115V8.64516C51.9115 7.46232 51.6228 6.53999 51.0455 5.87816C50.4682 5.21634 49.669 4.88542 48.6481 4.88542C47.6765 4.88542 46.8528 5.23746 46.1769 5.94153C45.5009 6.6456 45.163 7.59257 45.163 8.78245V15.2036H44.1069V8.58179C44.1069 7.4412 43.8147 6.53999 43.2303 5.87816C42.653 5.21634 41.8715 4.88542 40.8858 4.88542C39.9001 4.88542 39.0657 5.26914 38.3828 6.03658C37.6998 6.79697 37.3584 7.73339 37.3584 8.84582V15.2036H36.2917Z" fill="#FC842D"/>
</svg>
