<svg version="1.1" xmlns="http://www.w3.org/2000/svg">
    <symbol id="logout" viewBox="0 0 16 16">
        <path d="M10 14H2V2H10V3H12V0H0V16H12V13H10V14H10Z" fill="#CBCCD0"/>
        <path d="M12.293 4.29297L10.8789 5.70702L12.1719 7H7V9H12.1719L10.8789 10.293L12.293 11.707L16 8L12.293 4.29297Z" fill="#CBCCD0"/>
    </symbol>
    <symbol id="google" viewBox="0 0 18 18">
        <path d="M17.6589 7.33402C17.737 7.33402 17.8003 7.39888 17.8003 7.47889V9C17.8003 9.56932 17.7487 10.126 17.6497 10.666C16.8835 14.8604 13.2752 18.0303 8.95014 17.9998C4.09707 17.9655 0.213154 13.9498 0.223899 8.97972C0.234576 4.01857 4.16518 0 9.0121 0C11.3867 0 13.5413 0.964758 15.1232 2.53188C15.1803 2.58845 15.1818 2.68168 15.1256 2.7392L13.0242 4.89115C12.9701 4.94656 12.8827 4.948 12.8273 4.89396C11.8345 3.92614 10.4912 3.33197 9.0121 3.33197C5.95781 3.33197 3.49831 5.83284 3.47757 8.96066C3.45673 12.109 5.94271 14.668 9.0121 14.668C11.5025 14.668 13.6089 12.9832 14.3034 10.666H9.15357C9.07544 10.666 9.0121 10.6011 9.0121 10.5211V7.47886C9.0121 7.39884 9.07544 7.33398 9.15357 7.33398H17.6589V7.33402Z" fill="#2196F3"/>
        <path d="M17.6585 7.33398H16.5976C16.6757 7.33398 16.739 7.39885 16.739 7.47886V8.99997C16.739 9.56929 16.6874 10.126 16.5884 10.666C15.8575 14.6675 12.5397 17.7365 8.48071 17.9837C8.63602 17.9931 8.79235 17.9986 8.94979 17.9997C13.2749 18.0303 16.8832 14.8604 17.6493 10.666C17.7484 10.126 17.8 9.56929 17.8 8.99997V7.47883C17.8 7.39885 17.7366 7.33398 17.6585 7.33398Z" fill="#1E88E5"/>
        <path d="M3.98457 6.62632L1.31555 4.65138C2.81292 1.87787 5.69834 0 9.01171 0C11.3864 0 13.5409 0.964758 15.1228 2.53188C15.1799 2.58845 15.1814 2.68168 15.1252 2.7392L13.0238 4.89115C12.9698 4.94645 12.8824 4.94817 12.8271 4.89424C11.8343 3.92625 10.4909 3.332 9.01171 3.332C6.78266 3.332 4.86126 4.68144 3.98457 6.62632Z" fill="#F44336"/>
        <path d="M3.21411 6.05622L3.98463 6.62635C4.78484 4.85117 6.45556 3.57268 8.43601 3.36297C8.45091 3.36132 8.46522 3.35931 8.48039 3.35784C8.30611 3.34089 8.12948 3.33203 7.95083 3.33203C5.9372 3.33203 4.18229 4.41917 3.21411 6.05622Z" fill="#E53935"/>
        <path d="M14.0619 2.53188C14.119 2.58845 14.1205 2.68168 14.0643 2.73923L12.3587 4.4859C12.5221 4.61317 12.6785 4.74929 12.8269 4.894C12.8824 4.94803 12.9698 4.94659 13.0239 4.89118L15.1252 2.73923C15.1814 2.68168 15.1799 2.58848 15.1228 2.53188C13.541 0.964758 11.3864 0 9.01176 0C8.83355 0 8.65676 0.00608203 8.4812 0.0168047C10.6453 0.148816 12.5987 1.08232 14.0619 2.53188Z" fill="#E53935"/>
        <path d="M15.4585 15.1164C13.8537 16.89 11.5592 18 9.01182 18C5.57116 18 2.59236 15.9751 1.14978 13.0252L3.87465 11.1129C4.69233 13.1965 6.68445 14.668 9.01182 14.668C10.4724 14.668 11.8007 14.0885 12.7895 13.1418L15.4585 15.1164Z" fill="#4CAF50"/>
        <path d="M3.87467 11.1129L3.07117 11.6768C4.0044 13.4572 5.8396 14.668 7.95087 14.668C8.12941 14.668 8.3059 14.659 8.48012 14.6421C6.38437 14.4375 4.62929 13.0359 3.87467 11.1129Z" fill="#43A047"/>
        <path d="M9.01181 18.0001C11.5592 18.0001 13.8537 16.89 15.4585 15.1165L14.8048 14.6328C13.2979 16.5534 11.0373 17.8275 8.48267 17.9837C8.65774 17.9944 8.83413 18.0001 9.01181 18.0001Z" fill="#43A047"/>
        <path d="M3.47711 8.99998C3.47711 9.74677 3.61821 10.4599 3.87461 11.1129L1.14971 13.0252C0.557017 11.8141 0.223511 10.4469 0.223511 8.99998C0.223511 7.42273 0.619599 5.94034 1.31559 4.65137L3.9846 6.6263C3.65889 7.3481 3.47711 8.15251 3.47711 8.99998Z" fill="#FFC107"/>
        <path d="M3.0711 11.6768L3.8746 11.1129C3.6182 10.4599 3.47711 9.74676 3.47711 8.99997C3.47711 8.15249 3.65888 7.34808 3.98459 6.62628L3.21408 6.05615C2.71373 6.90219 2.42334 7.89497 2.41627 8.96066C2.40975 9.94342 2.64754 10.8688 3.0711 11.6768Z" fill="#FFB300"/>
    </symbol> -->
    <symbol id="eye" viewBox="0 0 32 32">
        <path d="M16 6c-6.979 0-13.028 4.064-16 10 2.972 5.936 9.021 10 16 10s13.027-4.064 16-10c-2.972-5.936-9.021-10-16-10zM23.889 11.303c1.88 1.199 3.473 2.805 4.67 4.697-1.197 1.891-2.79 3.498-4.67 4.697-2.362 1.507-5.090 2.303-7.889 2.303s-5.527-0.796-7.889-2.303c-1.88-1.199-3.473-2.805-4.67-4.697 1.197-1.891 2.79-3.498 4.67-4.697 0.122-0.078 0.246-0.154 0.371-0.228-0.311 0.854-0.482 1.776-0.482 2.737 0 4.418 3.582 8 8 8s8-3.582 8-8c0-0.962-0.17-1.883-0.482-2.737 0.124 0.074 0.248 0.15 0.371 0.228v0zM16 13c0 1.657-1.343 3-3 3s-3-1.343-3-3 1.343-3 3-3 3 1.343 3 3z" fill="var(--main-color, grey)"></path>
    </symbol>
     <symbol id="closedEye" viewBox="0 0 32 32">
        <path d="M29.561 0.439c-0.586-0.586-1.535-0.586-2.121 0l-6.318 6.318c-1.623-0.492-3.342-0.757-5.122-0.757-6.979 0-13.028 4.064-16 10 1.285 2.566 3.145 4.782 5.407 6.472l-4.968 4.968c-0.586 0.586-0.586 1.535 0 2.121 0.293 0.293 0.677 0.439 1.061 0.439s0.768-0.146 1.061-0.439l27-27c0.586-0.586 0.586-1.536 0-2.121zM13 10c1.32 0 2.44 0.853 2.841 2.037l-3.804 3.804c-1.184-0.401-2.037-1.521-2.037-2.841 0-1.657 1.343-3 3-3zM3.441 16c1.197-1.891 2.79-3.498 4.67-4.697 0.122-0.078 0.246-0.154 0.371-0.228-0.311 0.854-0.482 1.776-0.482 2.737 0 1.715 0.54 3.304 1.459 4.607l-1.904 1.904c-1.639-1.151-3.038-2.621-4.114-4.323z" fill="var(--main-color, grey)"></path>
        <path d="M24 13.813c0-0.849-0.133-1.667-0.378-2.434l-10.056 10.056c0.768 0.245 1.586 0.378 2.435 0.378 4.418 0 8-3.582 8-8z" fill="var(--main-color,grey)"></path>
        <path d="M25.938 9.062l-2.168 2.168c0.040 0.025 0.079 0.049 0.118 0.074 1.88 1.199 3.473 2.805 4.67 4.697-1.197 1.891-2.79 3.498-4.67 4.697-2.362 1.507-5.090 2.303-7.889 2.303-1.208 0-2.403-0.149-3.561-0.439l-2.403 2.403c1.866 0.671 3.873 1.036 5.964 1.036 6.978 0 13.027-4.064 16-10-1.407-2.81-3.504-5.2-6.062-6.938z" fill="var(--main-color,grey)"></path>
    </symbol>
    <symbol id="basket" fill="none" viewBox="0 0 18 18">
        <path d="M16.308 4.02333L15.9106 2.832C15.7592 2.37827 15.3361 2.07339 14.8579 2.07339H11.5177V0.985886C11.5177 0.442337 11.0758 0 10.5324 0H7.47348C6.93021 0 6.48815 0.442337 6.48815 0.985886V2.07339H3.14803C2.66971 2.07339 2.2466 2.37827 2.09526 2.832L1.69783 4.02333C1.60733 4.29456 1.6532 4.59489 1.82033 4.82684C1.98746 5.05879 2.25786 5.19736 2.54378 5.19736H2.9592L3.87354 16.5038C3.94152 17.3427 4.65343 18 5.49457 18H12.6968C13.5378 18 14.2499 17.3427 14.3177 16.5037L15.232 5.19736H15.4621C15.748 5.19736 16.0184 5.05879 16.1855 4.82698C16.3526 4.59503 16.3985 4.29456 16.308 4.02333ZM7.54284 1.05469H10.463V2.07339H7.54284V1.05469ZM13.2664 16.4187C13.2425 16.7141 12.9923 16.9453 12.6968 16.9453H5.49457C5.19904 16.9453 4.94883 16.7141 4.92493 16.4187L4.01732 5.19736H14.1739L13.2664 16.4187ZM2.76996 4.14267L3.09584 3.16571C3.10326 3.14319 3.12427 3.12808 3.14803 3.12808H14.8579C14.8817 3.12808 14.9026 3.14319 14.9101 3.16571L15.236 4.14267H2.76996Z" fill="var(--basket-color, #52555F)"/>
        <path d="M11.5845 16.3811C11.5938 16.3816 11.6031 16.3818 11.6124 16.3818C11.891 16.3818 12.1239 16.1634 12.1385 15.8819L12.6337 6.37568C12.6488 6.08482 12.4252 5.83667 12.1345 5.82156C11.843 5.80604 11.5956 6.02989 11.5804 6.32075L11.0853 15.827C11.0702 16.1178 11.2936 16.366 11.5845 16.3811Z" fill="var(--basket-color, #52555F)"/>
        <path d="M5.89105 15.8835C5.90643 16.1646 6.13906 16.3821 6.41715 16.3821C6.42677 16.3821 6.43665 16.3819 6.4464 16.3813C6.73713 16.3655 6.96001 16.117 6.94422 15.8261L6.42553 6.31991C6.40974 6.02905 6.16117 5.80616 5.87031 5.82209C5.57959 5.83789 5.3567 6.08645 5.37249 6.37731L5.89105 15.8835Z" fill="var(--basket-color, #52555F)"/>
        <path d="M9.00891 16.3822C9.30019 16.3822 9.53625 16.1461 9.53625 15.8548V6.34863C9.53625 6.05736 9.30019 5.82129 9.00891 5.82129C8.71764 5.82129 8.48157 6.05736 8.48157 6.34863V15.8548C8.48157 16.1461 8.71764 16.3822 9.00891 16.3822Z" fill="var(--basket-color, #52555F)"/>
    </symbol>
    <symbol id="close" fill="blue" viewBox="0 0 14 14">
        <path d="M1 1 12 12M1 13 13 1" stroke-width="2"/>
    </symbol>

</svg>