<svg width="48" height="16" viewBox="0 0 48 16" fill="none" xmlns="http://www.w3.org/2000/svg">
<path d="M0.666687 13.5815L1.3954 12.7366C2.25437 13.5252 3.10277 14.099 3.94061 14.4581C4.77846 14.8101 5.74303 14.9861 6.83434 14.9861C7.96086 14.9861 8.87967 14.701 9.59078 14.1307C10.3019 13.5604 10.6574 12.8282 10.6574 11.934C10.6574 11.3707 10.5413 10.9025 10.3089 10.5294C10.0836 10.1562 9.65415 9.81826 9.02048 9.51551C8.39386 9.21276 7.51377 8.94521 6.38022 8.71287C4.55668 8.33971 3.24711 7.82222 2.45151 7.1604C1.66295 6.49153 1.26867 5.57624 1.26867 4.41452C1.26867 3.28097 1.72983 2.33399 2.65217 1.5736C3.5745 0.813201 4.73621 0.433003 6.13731 0.433003C7.2075 0.433003 8.14039 0.580858 8.93599 0.876568C9.73159 1.16524 10.5272 1.62992 11.3228 2.27063L10.6152 3.15776C9.91817 2.55226 9.20354 2.11573 8.47131 1.84818C7.74612 1.58064 6.95404 1.44686 6.09507 1.44686C4.99672 1.44686 4.10607 1.72497 3.42312 2.28119C2.74017 2.83036 2.3987 3.52035 2.3987 4.35116C2.3987 4.92145 2.51135 5.3967 2.73665 5.7769C2.969 6.15005 3.40904 6.49857 4.05679 6.82244C4.71157 7.13927 5.62686 7.41738 6.80266 7.65677C8.5558 8.01584 9.82312 8.52629 10.6046 9.18812C11.3932 9.84995 11.7875 10.7441 11.7875 11.8706C11.7875 13.0816 11.3158 14.0744 10.3723 14.8488C9.42884 15.6163 8.22488 16 6.76042 16C5.57054 16 4.48627 15.8029 3.50761 15.4086C2.53599 15.0143 1.58902 14.4053 0.666687 13.5815Z" fill="#212121"/>
<path d="M17.1191 15.7888V0H18.1752V15.7888H17.1191Z" fill="#212121"/>
<path d="M24.1089 1.87987V0.433003H25.4184V1.87987H24.1089ZM24.2356 15.7888V4.76304H25.2917V15.7888H24.2356Z" fill="#212121"/>
<path d="M31.1936 15.7888V4.76304H32.2603V6.72739C32.4645 6.40352 32.6687 6.12189 32.8728 5.88251C33.077 5.64312 33.3234 5.4143 33.6121 5.19604C33.9078 4.97074 34.2493 4.79824 34.6365 4.67855C35.0308 4.55886 35.4638 4.49901 35.9355 4.49901C36.8368 4.49901 37.5971 4.72079 38.2167 5.16436C38.8434 5.60088 39.3221 6.17118 39.653 6.87525C40.5754 5.29109 41.9025 4.49901 43.6346 4.49901C44.9371 4.49901 45.9685 4.91793 46.7289 5.75578C47.4893 6.59362 47.8695 7.70957 47.8695 9.10363V15.7888H46.8134V9.23036C46.8134 8.04752 46.5248 7.12519 45.9474 6.46337C45.3701 5.80154 44.571 5.47063 43.5501 5.47063C42.5784 5.47063 41.7547 5.82266 41.0788 6.52673C40.4029 7.2308 40.0649 8.17778 40.0649 9.36766V15.7888H39.0088V9.167C39.0088 8.0264 38.7166 7.12519 38.1322 6.46337C37.5549 5.80154 36.7734 5.47063 35.7877 5.47063C34.802 5.47063 33.9677 5.85435 33.2847 6.62178C32.6018 7.38218 32.2603 8.31859 32.2603 9.43102V15.7888H31.1936Z" fill="#212121"/>
</svg>
